# xmcd
#
# Track frame offsets: 
#        150
#        21089
#        42669
#        67314
#        89659
#        110294
#        133413
#        152848
#        177516
#        203399
#        226258
#
# Disc length: 3328 seconds
#
# Revision: 0
# Processed by: cddbd v1.5.2PL0 Copyright (c) Steve Scherf et al.
# Submitted via: ExactAudioCopy v0.99pb5
#
DISCID=9d0cfe0b
DTITLE=Le Quyen - Khuc tinh xua 2
DYEAR=1900
DGENRE=Blues
TTITLE0=Tra lai thoi gian
TTITLE1=Sau tim thiep hong_ voi Quang Le
TTITLE2=Ai kho vi ai
TTITLE3=Sang ngang
TTITLE4=Sao em no vo tinh
TTITLE5=Cho nguoi
TTITLE6=Mua rung
TTITLE7=Nua dem ngoai pho
TTITLE8=Neu anh dung hen
TTITLE9=Vet thuong cuoi cung
TTITLE10=Khong gio rioi
EXTD=
EXTT0=
EXTT1=
EXTT2=
EXTT3=
EXTT4=
EXTT5=
EXTT6=
EXTT7=
EXTT8=
EXTT9=
EXTT10=
PLAYORDER=
